PathFileType	4	(X/Y/Z)	Kaydara	
DataRate	CameraRate	NumFrames	NumMarkers	Units	OrigDataRate	OrigDataStartFrame	OrigNumFrames	
60.00	60.00	5	74	mm	60.00	420	242	
Frame#	Time	Z_lasi			Z_rasi			Z_rpsi			Z_lpsi			Z_fneck			Z_bneck			Z_fhead			Z_rhead			Z_lhead			Z_rshld			Z_relbtop			Z_relbext			Z_relblow			Z_rwrext			Z_rwrtop			Z_rwrlow			Z_lshld			Z_lelbext			Z_lelblow			Z_lelbtop			Z_lwrext			Z_lwrtop			Z_rtopleg			Z_ltopleg			Z_rkneefr			Z_rkneebk			Z_rkneeis			Z_lkneefr			Z_lknssbk			Z_lkneeis			Z_rankfr			Z_rankis			Z_rankbk			Z_lankfr			Z_lankbk			Z_lankis			A_lasi			A_rasi			A_rpsi			A_lpsi			A_fneck			A_bneck			A_fhead			A_rhead			A_lhead			A_rshld			A_relbtop			A_relbext			A_relblow			A_rwrext			A_rwrtop			A_rwrlow			A_lshld			A_lelbext			A_lelblow			A_lelbtop			A_lwrext			A_lwrtop			A_lwrlow			A_rtopleg			A_ltopleg			A_rkneefr			A_rkneebk			A_rkneeis			A_lkneefr			A_lknssbk			A_lkneeis			A_rankfr			A_rankis			A_rankbk			A_lankfr			A_lankbk			A_lankis			Z_lwrlow			
		X1	Y1	Z1	X2	Y2	Z2	X3	Y3	Z3	X4	Y4	Z4	X5	Y5	Z5	X6	Y6	Z6	X7	Y7	Z7	X8	Y8	Z8	X9	Y9	Z9	X10	Y10	Z10	X11	Y11	Z11	X12	Y12	Z12	X13	Y13	Z13	X14	Y14	Z14	X15	Y15	Z15	X16	Y16	Z16	X17	Y17	Z17	X18	Y18	Z18	X19	Y19	Z19	X20	Y20	Z20	X21	Y21	Z21	X22	Y22	Z22	X23	Y23	Z23	X24	Y24	Z24	X25	Y25	Z25	X26	Y26	Z26	X27	Y27	Z27	X28	Y28	Z28	X29	Y29	Z29	X30	Y30	Z30	X31	Y31	Z31	X32	Y32	Z32	X33	Y33	Z33	X34	Y34	Z34	X35	Y35	Z35	X36	Y36	Z36	X37	Y37	Z37	X38	Y38	Z38	X39	Y39	Z39	X40	Y40	Z40	X41	Y41	Z41	X42	Y42	Z42	X43	Y43	Z43	X44	Y44	Z44	X45	Y45	Z45	X46	Y46	Z46	X47	Y47	Z47	X48	Y48	Z48	X49	Y49	Z49	X50	Y50	Z50	X51	Y51	Z51	X52	Y52	Z52	X53	Y53	Z53	X54	Y54	Z54	X55	Y55	Z55	X56	Y56	Z56	X57	Y57	Z57	X58	Y58	Z58	X59	Y59	Z59	X60	Y60	Z60	X61	Y61	Z61	X62	Y62	Z62	X63	Y63	Z63	X64	Y64	Z64	X65	Y65	Z65	X66	Y66	Z66	X67	Y67	Z67	X68	Y68	Z68	X69	Y69	Z69	X70	Y70	Z70	X71	Y71	Z71	X72	Y72	Z72	X73	Y73	Z73	X74	Y74	Z74	

212	6.983	-186.78463	1099.27803	-248.40506	-359.32373	1107.84248	-127.93765	-503.67756	1124.68430	-258.31959	-303.79938	1111.42242	-406.80027	-314.06841	1462.36191	-230.78865	-368.18340	1515.39169	-330.79903	-323.09731	1670.15778	-136.34043	-446.54812	1638.68530	-245.63904	-313.37023	1661.84784	-305.93695	-520.43659	1444.78668	-187.21828	-508.00419	1164.58031	-73.68893	-548.76247	1094.06982	-89.16825	-502.72724	1088.71590	-133.51951	-372.44507	1050.00153	47.24482	-368.63686	1095.08934	55.80259	-341.98879	1101.94923	21.52926	-190.20437	1454.51172	-395.34962	-135.00490	1129.62357	-469.08928	-184.17170	1113.29063	-417.72243	-95.67895	1136.24306	-405.04082	-92.83894	894.01657	-329.91352	-55.66414	888.03635	-359.78775	-528.51265	925.38528	-205.20199	-179.45885	903.60153	-331.69773	-473.64578	420.84442	-135.57466	-537.29500	453.54549	-192.20190	-414.24362	430.18768	-212.35071	-183.54790	435.12413	-260.20023	-227.86341	459.27109	-356.65291	-274.81125	422.44816	-243.45148	-511.19465	185.25368	-180.17828	-457.14520	180.50171	-216.55350	-534.11648	184.28989	-252.33700	-200.96582	168.96572	-305.88425	-267.34205	171.69088	-351.62437	-262.42861	176.32296	-272.05547	60.92680	1036.35353	521.92833	170.01919	1051.88454	411.00029	296.35056	1052.42172	518.04680	144.59850	1048.65219	612.03400	159.77662	1385.46707	529.20074	257.36485	1410.58609	625.73875	145.74346	1606.36475	485.82775	299.50233	1565.39612	550.97946	168.56012	1563.12164	647.89459	333.80798	1363.78372	445.14709	327.38911	1065.95940	392.01630	365.42694	1053.77075	442.91473	293.59470	1048.03558	437.04735	315.77402	823.12477	342.41837	319.99002	823.40500	384.89887	274.94492	831.83304	337.00676	68.62044	1359.99756	665.78072	29.22074	1056.09695	693.48099	78.33560	1047.05513	698.59367	41.65504	1050.57854	640.85899	-4.55767	825.29343	674.33777	-33.79906	833.56003	638.99231	19.63358	824.99680	636.43627	327.15885	877.06207	422.68318	43.54027	886.22833	623.08769	223.49831	415.20626	554.26003	315.86185	447.16766	507.64511	233.18510	405.30060	449.46724	217.28769	453.18008	591.34640	119.01718	477.51648	663.11478	119.99198	422.39426	551.50032	258.38108	167.86592	470.81024	224.92273	164.57550	534.09260	308.50039	151.80243	533.34084	132.50446	168.66449	608.37234	138.01883	170.06605	678.25897	208.49340	174.48711	624.10557	-81.45352	883.07892	-398.57216 
213	7.000	-189.09334	1099.52332	-246.31840	-362.01180	1107.35161	-127.09632	-506.22028	1125.03265	-257.51589	-305.99369	1111.80595	-405.05863	-317.90854	1463.24402	-230.47289	-371.67530	1515.67444	-331.02051	-327.55932	1670.08438	-135.80988	-450.61935	1639.36707	-245.83796	-317.34118	1663.08655	-305.25890	-524.64172	1444.89807	-188.20946	-515.75775	1163.16208	-75.61637	-558.53050	1094.32945	-91.68239	-512.91920	1087.96158	-136.65137	-384.50466	1043.22502	44.88488	-377.65980	1088.25508	52.43284	-351.06987	1093.69209	17.93523	-193.22351	1454.95941	-394.65294	-136.02863	1130.14587	-466.90937	-185.28347	1113.72040	-415.69180	-96.72981	1137.20108	-402.85587	-93.22607	895.12451	-326.77979	-55.75066	889.38934	-356.32309	-531.10806	925.41298	-203.84531	-182.14766	903.69682	-330.95425	-474.52492	420.67070	-135.43943	-538.45669	453.31078	-191.71795	-415.43087	430.41233	-212.27478	-185.02932	435.33031	-260.46526	-229.63758	459.42825	-356.87233	-276.68264	422.40734	-244.32899	-511.43589	185.16773	-179.99096	-457.48714	180.58788	-216.54169	-534.50401	184.15642	-252.16827	-201.21769	169.23262	-306.17168	-267.88074	171.59792	-351.80729	-262.84969	176.33526	-272.12044	60.57979	1036.04721	521.60801	170.05915	1051.72668	410.77122	295.32579	1052.39426	515.86433	143.71585	1048.57674	612.24045	159.24554	1385.56976	528.60340	256.74730	1410.21408	625.26440	144.51152	1606.89774	486.17672	298.33628	1565.84183	550.96325	167.37944	1562.52930	647.92809	334.06708	1363.24249	445.22747	332.43294	1064.52484	398.40569	368.57071	1053.49930	450.63080	297.27077	1046.16753	441.86523	334.99508	820.15907	354.18400	331.81461	821.59050	395.28469	297.06638	830.34485	338.63766	67.68694	1360.44556	665.01221	27.00261	1057.00890	692.05170	75.62672	1047.76215	698.73657	40.53396	1051.00998	639.83448	-7.64446	826.21361	673.65868	-35.14974	834.08348	636.81923	17.72136	824.60754	635.86887	327.59743	876.92551	426.44596	43.28254	886.23901	622.73556	223.39745	415.08701	554.33777	315.95734	446.99699	508.15140	233.52333	405.25112	449.63512	217.33105	453.09170	591.69640	118.75351	477.37957	662.78412	120.01711	422.31091	551.05949	258.48228	167.76178	470.91621	224.84470	164.40460	534.14417	308.56020	151.68094	533.46691	132.50763	168.50904	608.19275	137.90245	170.02586	678.05183	208.45715	174.39812	624.16954	-81.33121	883.98674	-395.13702 
214	7.017	-191.52328	1099.82750	-244.27099	-364.91795	1107.53708	-125.37695	-508.42979	1125.47852	-255.39139	-308.30744	1112.20566	-403.21938	-321.70731	1464.11209	-230.14713	-375.15800	1515.84946	-331.26602	-332.34009	1670.14755	-135.60698	-454.85130	1640.19226	-246.26011	-321.37184	1664.33334	-305.03002	-528.90400	1445.09537	-189.21844	-522.93236	1161.57059	-77.33232	-568.09826	1094.71085	-94.24128	-523.11745	1087.06787	-139.20204	-396.35399	1035.43434	41.93238	-387.06249	1079.99184	49.13811	-360.40565	1083.54065	14.19735	-196.32908	1455.35675	-393.98136	-137.09223	1130.58983	-464.46220	-186.54110	1114.11499	-413.46088	-98.73912	1138.04420	-399.87297	-93.18986	896.45233	-323.22872	-55.85190	890.72144	-352.85149	-533.89984	925.55283	-202.53052	-184.99592	903.89816	-330.26623	-475.75985	420.72971	-135.12209	-539.86839	453.09624	-191.18759	-416.79359	430.66505	-212.27251	-186.70462	435.55305	-260.82127	-231.48840	459.54018	-357.16808	-278.31289	422.35973	-244.42478	-511.78009	185.02249	-179.79874	-457.78568	180.70385	-216.48479	-534.97234	184.01720	-251.76991	-200.61100	169.66978	-308.00684	-268.26050	171.51066	-351.93840	-263.17749	176.31815	-272.24041	60.35558	1036.07498	521.29753	170.05880	1051.56654	410.58552	294.39453	1052.43446	513.99517	142.98640	1048.72879	611.79829	158.76421	1385.68100	527.95300	256.35843	1409.96613	624.62669	143.36078	1607.39304	486.39290	297.31934	1566.38657	550.76988	166.64476	1561.80634	647.66731	334.58961	1363.18100	445.97088	339.90791	1064.61571	402.55516	372.10503	1054.07425	457.83279	302.57504	1045.50095	445.85716	347.77416	820.30746	360.72689	335.96428	821.48293	404.82704	310.32389	828.97324	343.65746	66.58696	1361.03210	664.14215	24.54894	1057.63809	690.43961	72.87517	1048.36655	698.44948	39.68494	1051.51344	638.62904	-10.55979	827.01630	672.73285	-36.43765	834.68094	634.51469	18.57203	824.05205	637.38087	327.70668	876.66489	430.65258	43.14574	886.00822	622.60223	223.45299	415.08629	554.90582	316.02570	446.88972	508.94650	233.87362	405.28122	449.97124	217.33265	452.96734	591.43486	118.44446	477.19635	662.25876	120.06141	422.21695	550.57720	258.56775	167.76022	471.12362	224.79914	164.34618	534.26189	308.53790	151.60039	533.78101	132.54990	168.32975	608.02849	137.87616	169.97364	677.85118	208.44791	174.32098	624.10957	-81.23599	885.08942	-391.76556 
215	7.033	-194.23513	1099.81255	-242.51131	-367.35027	1107.24304	-123.80466	-511.03279	1125.82817	-253.55722	-310.83168	1112.65411	-401.32198	-325.51266	1465.01572	-229.75773	-378.70335	1515.99792	-331.41697	-337.07092	1670.31799	-135.58566	-459.21272	1640.97977	-247.10268	-325.48752	1665.50186	-305.05196	-532.93129	1445.16220	-189.61611	-529.53602	1159.75090	-78.95903	-577.52110	1095.06706	-96.66816	-533.14213	1086.33553	-142.60949	-408.69362	1026.69487	38.87453	-396.41018	1070.43732	45.55835	-371.14998	1071.75636	10.95222	-199.48174	1455.67154	-393.21327	-138.30539	1130.95917	-461.93161	-187.56836	1114.41872	-410.86784	-100.07543	1138.88092	-397.32277	-93.22493	897.85522	-319.59846	-55.56788	892.10625	-349.12983	-536.69949	925.72990	-200.98124	-188.08912	904.00200	-329.54742	-476.70620	420.70499	-135.10320	-541.21315	452.78831	-190.83025	-418.26439	430.87215	-212.24569	-188.37297	435.93666	-261.22223	-233.45039	459.68456	-357.50305	-280.03817	422.26650	-244.99498	-512.09728	184.75512	-179.83793	-458.33351	180.83309	-216.56731	-535.55958	183.90440	-251.60238	-200.35116	170.16624	-309.40397	-268.75328	171.38802	-352.00768	-263.62650	176.37470	-272.19055	58.70369	1036.18401	521.65611	170.05308	1051.41273	410.55637	293.77817	1052.75856	513.40931	142.44434	1048.91891	611.40270	158.31746	1385.85434	527.44343	255.78463	1409.68842	624.52217	142.16558	1607.86346	486.47991	296.27268	1566.83914	550.49973	165.63200	1561.40808	647.63802	335.24734	1363.55347	447.13123	348.86692	1065.28671	405.92293	376.41792	1055.35370	463.83930	308.18329	1046.49971	446.90220	360.69500	819.86969	368.15636	343.61992	821.61362	412.50328	324.10648	828.54492	348.65231	65.54782	1361.48956	663.20015	22.43757	1058.22174	688.83492	70.62661	1048.78487	697.87941	38.63754	1051.97823	637.44087	-13.51925	827.89146	671.85638	-37.12546	835.16228	632.29401	17.43947	824.06052	639.30687	327.64599	876.36246	435.07423	42.83001	886.00983	622.18014	223.67983	415.21511	555.54852	316.29839	447.03285	509.24355	234.02554	405.39581	450.40493	217.11056	452.72266	590.62286	118.32206	476.91994	661.78177	120.12286	422.19013	550.04013	258.70140	167.87609	471.30974	224.91741	164.40878	534.39644	308.60754	151.65331	534.00204	132.55538	168.14190	607.87853	137.80752	169.89883	677.70996	208.39386	174.24046	623.92567	-81.17980	886.11633	-387.92358 
216	7.050	-197.53237	1099.70757	-241.26772	-370.06191	1107.20612	-122.08117	-513.78162	1126.21147	-251.56530	-313.60411	1113.09181	-399.42234	-329.18873	1465.89935	-229.22901	-382.46464	1516.09863	-331.41064	-342.01012	1670.78384	-135.82495	-463.57708	1641.96365	-248.01588	-329.65843	1666.55106	-305.31357	-536.85734	1445.20142	-189.74543	-535.80708	1157.49130	-80.29386	-586.68610	1095.45219	-99.15833	-542.70226	1085.54886	-145.22952	-421.75529	1016.83365	35.69276	-406.19373	1059.49982	42.05374	-381.38935	1058.65532	7.03836	-202.81151	1455.83420	-392.39620	-139.68677	1131.22955	-459.25735	-188.98361	1114.59320	-408.20602	-101.59103	1139.78287	-394.59064	-93.19277	899.05479	-315.52322	-55.60734	893.44826	-345.14561	-539.74880	925.90302	-199.31044	-191.24783	904.11652	-328.99937	-478.17181	420.62473	-134.86782	-542.78992	452.60334	-190.55353	-419.79061	431.08925	-212.27079	-190.23973	436.18427	-261.69811	-235.64800	459.77207	-357.88029	-281.67473	422.00542	-244.98940	-512.43443	184.55746	-179.90393	-458.96286	180.90385	-216.63420	-536.20819	183.70621	-251.76195	-200.76345	170.41237	-309.80894	-269.52782	171.35332	-352.42023	-264.07534	176.36961	-272.40856	58.64937	1036.05682	521.59817	170.01701	1051.31119	410.69172	294.96489	1052.98233	513.95832	142.18541	1049.03381	611.29921	157.80715	1385.98831	526.96632	254.98266	1409.53445	624.75338	140.90231	1608.24966	486.66042	295.25158	1567.27539	550.17864	164.64605	1561.08398	647.51015	335.85064	1364.07990	448.51788	358.20881	1065.92285	409.46117	380.57552	1056.66748	469.83479	314.42846	1047.80663	447.10766	371.08150	820.26390	372.89314	354.28345	821.71013	417.33704	334.38641	828.28690	353.35026	64.17727	1361.81808	662.15233	20.38622	1058.79990	687.23167	68.24220	1049.29390	697.45438	37.66140	1052.30972	636.11862	-16.35250	828.59093	670.80208	-37.68313	835.49606	630.02220	16.08717	824.58069	639.88338	330.59460	876.82205	435.34901	42.58514	885.98000	621.83323	223.97148	415.20725	556.10737	316.50576	447.03560	509.49696	234.09136	405.47375	450.80036	216.89156	452.39750	589.49207	118.29324	476.60007	661.34995	120.03926	422.08302	549.33434	258.68622	167.93488	471.48071	225.05388	164.43935	534.55326	308.67012	151.62782	534.02500	132.60872	167.98206	607.69680	137.74356	169.81554	677.56073	208.34074	174.12668	623.76591	-81.17342	887.10602	-383.95283 
